<svg width="270" height="31" viewBox="0 0 270 31" fill="none" xmlns="http://www.w3.org/2000/svg">
<path d="M9.86589 0H0V30.8621H19.7318V21.2177H9.86589V0Z" fill="#807778"/>
<path d="M21.7 30.8622H31.5658V0H11.834V9.6444H21.7V30.8622Z" fill="#807778"/>
<path d="M40.4492 14.6721C40.4492 11.8678 41.4147 9.53091 43.3455 7.66135C45.2763 5.77384 47.7497 4.83008 50.7654 4.83008C53.7812 4.83008 56.2545 5.77384 58.1854 7.66135C60.1162 9.53091 61.0817 11.8678 61.0817 14.6721C61.0817 16.6675 60.4288 18.573 59.1232 20.3886L61.192 22.0334L58.4612 25.0265L56.4476 23.1659C54.7926 24.2265 52.8986 24.7568 50.7654 24.7568C47.7497 24.7568 45.2763 23.7951 43.3455 21.8716C41.4147 19.9482 40.4492 17.5483 40.4492 14.6721ZM45.4418 14.6721C45.4418 16.3259 45.9383 17.7011 46.9313 18.7977C47.9427 19.8942 49.2208 20.4425 50.7654 20.4425C51.6113 20.4425 52.3285 20.2987 52.917 20.0111L50.9034 18.2853L53.6065 15.2923L55.565 17.1528C55.9144 16.3619 56.089 15.535 56.089 14.6721C56.089 13.0902 55.5834 11.7779 54.572 10.7353C53.5606 9.67471 52.2917 9.1444 50.7654 9.1444C49.2208 9.1444 47.9427 9.67471 46.9313 10.7353C45.9383 11.7779 45.4418 13.0902 45.4418 14.6721Z" fill="#807778"/>
<path d="M64.4837 17.3418V5.15381H69.3108V17.3418C69.3108 18.3305 69.6142 19.0945 70.221 19.6338C70.8463 20.1731 71.683 20.4427 72.7311 20.4427C73.7793 20.4427 74.6068 20.1731 75.2136 19.6338C75.8389 19.0945 76.1515 18.3305 76.1515 17.3418V5.15381H80.9786V17.3418C80.9786 19.5349 80.2246 21.3235 78.7167 22.7077C77.2088 24.0739 75.2228 24.757 72.7587 24.757C70.2762 24.757 68.2718 24.0739 66.7455 22.7077C65.2376 21.3235 64.4837 19.5349 64.4837 17.3418Z" fill="#807778"/>
<path d="M83.0116 24.4335L89.7143 5.15381H94.7897L101.492 24.4335H96.5275L95.3138 20.3888H89.1627L87.9766 24.4335H83.0116ZM90.2936 16.6138H94.1829L93.0795 12.8657L92.2796 9.54906H92.2244C91.9302 10.9512 91.6636 12.0568 91.4245 12.8657L90.2936 16.6138Z" fill="#807778"/>
<path d="M104.059 24.4335V5.15381H110.928C112.674 5.15381 113.953 5.30661 114.762 5.6122C115.902 6.04364 116.794 6.74471 117.437 7.71543C118.081 8.66818 118.403 9.83666 118.403 11.2209C118.403 12.2994 118.145 13.3331 117.63 14.3218C117.115 15.2925 116.389 16.0115 115.451 16.4789V16.5329C115.635 16.7666 115.883 17.153 116.196 17.6923L120.03 24.4335H114.651L111.148 17.935H108.886V24.4335H104.059ZM108.886 13.8903H110.983C111.773 13.8903 112.389 13.6836 112.831 13.2702C113.272 12.8567 113.493 12.2725 113.493 11.5175C113.493 10.4569 113.107 9.77376 112.334 9.46816C111.911 9.28836 111.305 9.19848 110.514 9.19848H108.886V13.8903Z" fill="#807778"/>
<path d="M126.853 24.4335V9.19848H120.868V5.15381H137.666V9.19848H131.68V24.4335H126.853Z" fill="#807778"/>
<path d="M140.64 24.4335V5.15381H145.467V24.4335H140.64Z" fill="#807778"/>
<path d="M150.189 24.4335V5.15381H162.547V9.19848H155.016V12.7039H161.029V16.7486H155.016V20.3888H162.933V24.4335H150.189Z" fill="#807778"/>
<path d="M166.607 24.4335V5.15381H173.476C175.223 5.15381 176.501 5.30661 177.31 5.6122C178.45 6.04364 179.342 6.74471 179.985 7.71543C180.629 8.66818 180.951 9.83666 180.951 11.2209C180.951 12.2994 180.693 13.3331 180.178 14.3218C179.663 15.2925 178.937 16.0115 177.999 16.4789V16.5329C178.183 16.7666 178.431 17.153 178.744 17.6923L182.578 24.4335H177.199L173.696 17.935H171.434V24.4335H166.607ZM171.434 13.8903H173.531C174.321 13.8903 174.938 13.6836 175.379 13.2702C175.82 12.8567 176.041 12.2725 176.041 11.5175C176.041 10.4569 175.655 9.77376 174.882 9.46816C174.459 9.28836 173.853 9.19848 173.062 9.19848H171.434V13.8903Z" fill="#807778"/>
<path d="M192.548 24.4335V5.15381H197.375V20.3888H205.429V24.4335H192.548Z" fill="#807778"/>
<path d="M206.195 24.4335L212.898 5.15381H217.973L224.676 24.4335H219.711L218.497 20.3888H212.346L211.16 24.4335H206.195ZM213.477 16.6138H217.366L216.263 12.8657L215.463 9.54906H215.408C215.114 10.9512 214.847 12.0568 214.608 12.8657L213.477 16.6138Z" fill="#807778"/>
<path d="M229.955 24.4335V9.19848H223.97V5.15381H240.768V9.19848H234.782V24.4335H229.955Z" fill="#807778"/>
<path d="M243.742 24.4335V5.15381H248.569V24.4335H243.742Z" fill="#807778"/>
<path d="M253.291 24.4335V5.15381H258.173L263.635 14.16C263.856 14.5375 264.104 15.0049 264.38 15.5621C264.656 16.1014 264.876 16.5508 265.042 16.9104L265.29 17.4497H265.345C265.198 16.0655 265.124 14.9689 265.124 14.16V5.15381H269.952V24.4335H265.097L259.608 15.4543C259.387 15.0768 259.139 14.6184 258.863 14.0791C258.587 13.5218 258.366 13.0634 258.201 12.7039L257.953 12.1646H257.898C258.045 13.5488 258.118 14.6453 258.118 15.4543V24.4335H253.291Z" fill="#807778"/>
</svg>
