<svg width="222" height="25" viewBox="0 0 222 25" fill="none" xmlns="http://www.w3.org/2000/svg">
<g clip-path="url(#clip0_566_568)">
<path d="M8.11339 0H0V24.9999H16.2268V17.1875H8.11339V0Z" fill="white"/>
<path d="M17.8454 25H25.9587V0H9.73189V7.81247H17.8454V25Z" fill="white"/>
<path d="M33.2641 11.8852C33.2641 9.61354 34.0581 7.72053 35.6459 6.20609C37.2338 4.67711 39.2678 3.91261 41.7478 3.91261C44.2279 3.91261 46.2619 4.67711 47.8498 6.20609C49.4376 7.72053 50.2316 9.61354 50.2316 11.8852C50.2316 13.5015 49.6947 15.0451 48.621 16.5158L50.3223 17.8482L48.0766 20.2728L46.4207 18.7656C45.0597 19.6247 43.5021 20.0543 41.7478 20.0543C39.2678 20.0543 37.2338 19.2753 35.6459 17.7171C34.0581 16.1591 33.2641 14.215 33.2641 11.8852ZM37.3699 11.8852C37.3699 13.2248 37.7782 14.3388 38.5948 15.2271C39.4265 16.1153 40.4776 16.5595 41.7478 16.5595C42.4435 16.5595 43.0333 16.443 43.5172 16.21L41.8613 14.8121L44.0843 12.3876L45.6949 13.8947C45.9822 13.254 46.1258 12.5842 46.1258 11.8852C46.1258 10.6037 45.71 9.54072 44.8783 8.69616C44.0465 7.83702 43.003 7.40744 41.7478 7.40744C40.4776 7.40744 39.4265 7.83702 38.5948 8.69616C37.7782 9.54072 37.3699 10.6037 37.3699 11.8852Z" fill="white"/>
<path d="M53.0293 14.0476V4.17473H56.999V14.0476C56.999 14.8485 57.2485 15.4674 57.7475 15.9042C58.2617 16.3411 58.9498 16.5595 59.8117 16.5595C60.6737 16.5595 61.3542 16.3411 61.8532 15.9042C62.3675 15.4674 62.6245 14.8485 62.6245 14.0476V4.17473H66.5942V14.0476C66.5942 15.8241 65.9741 17.273 64.7341 18.3943C63.494 19.501 61.8608 20.0543 59.8344 20.0543C57.7929 20.0543 56.1445 19.501 54.8893 18.3943C53.6493 17.273 53.0293 15.8241 53.0293 14.0476Z" fill="white"/>
<path d="M68.2661 19.7923L73.7782 4.17473H77.952L83.4639 19.7923H79.3811L78.383 16.5158H73.3245L72.3491 19.7923H68.2661ZM74.2545 13.4579H77.453L76.5456 10.4217L75.8878 7.73511H75.8424C75.6004 8.87089 75.3812 9.76648 75.1846 10.4217L74.2545 13.4579Z" fill="white"/>
<path d="M85.5749 19.7923V4.17473H91.2238C92.6596 4.17473 93.7114 4.29851 94.3767 4.54605C95.3142 4.89554 96.0478 5.46344 96.5766 6.24978C97.1062 7.02155 97.371 7.96808 97.371 9.08936C97.371 9.963 97.1588 10.8004 96.7353 11.6012C96.3118 12.3876 95.7147 12.97 94.9433 13.3486V13.3924C95.0947 13.5817 95.2986 13.8947 95.556 14.3315L98.709 19.7923H94.2855L91.4047 14.5281H89.5445V19.7923H85.5749ZM89.5445 11.2517H91.269C91.9187 11.2517 92.4253 11.0843 92.7887 10.7494C93.1514 10.4144 93.3332 9.94121 93.3332 9.32962C93.3332 8.47048 93.0157 7.91713 92.38 7.66958C92.0322 7.52393 91.5338 7.45112 90.8833 7.45112H89.5445V11.2517Z" fill="white"/>
<path d="M104.32 19.7923V7.45112H99.3981V4.17473H113.212V7.45112H108.29V19.7923H104.32Z" fill="white"/>
<path d="M115.658 19.7923V4.17473H119.628V19.7923H115.658Z" fill="white"/>
<path d="M123.511 19.7923V4.17473H133.674V7.45112H127.48V10.2907H132.425V13.5671H127.48V16.5158H133.991V19.7923H123.511Z" fill="white"/>
<path d="M137.012 19.7923V4.17473H142.661C144.098 4.17473 145.149 4.29851 145.814 4.54605C146.752 4.89554 147.485 5.46344 148.014 6.24978C148.544 7.02155 148.808 7.96808 148.808 9.08936C148.808 9.963 148.596 10.8004 148.173 11.6012C147.749 12.3876 147.152 12.97 146.381 13.3486V13.3924C146.532 13.5817 146.736 13.8947 146.993 14.3315L150.146 19.7923H145.723L142.842 14.5281H140.982V19.7923H137.012ZM140.982 11.2517H142.706C143.356 11.2517 143.864 11.0843 144.226 10.7494C144.589 10.4144 144.771 9.94121 144.771 9.32962C144.771 8.47048 144.453 7.91713 143.817 7.66958C143.47 7.52393 142.971 7.45112 142.321 7.45112H140.982V11.2517Z" fill="white"/>
<path d="M158.345 19.7923V4.17473H162.315V16.5158H168.938V19.7923H158.345Z" fill="white"/>
<path d="M169.568 19.7923L175.081 4.17473H179.254L184.766 19.7923H180.683L179.685 16.5158H174.627L173.651 19.7923H169.568ZM175.557 13.4579H178.755L177.848 10.4217L177.19 7.73511H177.145C176.903 8.87089 176.683 9.76648 176.487 10.4217L175.557 13.4579Z" fill="white"/>
<path d="M189.108 19.7923V7.45112H184.186V4.17473H198V7.45112H193.077V19.7923H189.108Z" fill="white"/>
<path d="M200.446 19.7923V4.17473H204.415V19.7923H200.446Z" fill="white"/>
<path d="M208.299 19.7923V4.17473H212.313L216.805 11.4702C216.987 11.776 217.191 12.1546 217.418 12.606C217.645 13.0428 217.826 13.4069 217.962 13.6982L218.166 14.135H218.211C218.09 13.0137 218.03 12.1254 218.03 11.4702V4.17473H222V19.7923H218.007L213.493 12.5186C213.312 12.2128 213.108 11.8415 212.881 11.4047C212.654 10.9532 212.472 10.5819 212.336 10.2907L212.132 9.8538H212.087C212.208 10.9751 212.268 11.8633 212.268 12.5186V19.7923H208.299Z" fill="white"/>
</g>
<defs>
<clipPath id="clip0_566_568">
<rect width="222" height="25" fill="white"/>
</clipPath>
</defs>
</svg>
