<svg width="371" height="144" viewBox="0 0 371 144" fill="none" xmlns="http://www.w3.org/2000/svg">
<rect width="243" height="144" rx="20" fill="#1D62ED"/>
<rect x="72" y="36" width="243" height="42" rx="20" fill="#1D62ED"/>
<rect x="92" y="69" width="243" height="42" rx="20" fill="#1D62ED"/>
<rect x="92" width="159" height="42" rx="20" fill="#1D62ED"/>
<path d="M10.752 34V16.264H13.536V24.088L19.896 16.264H23.304L15.936 25L23.304 34H19.872L13.536 26.056V34H10.752ZM24.3467 27.424C24.3467 23.392 27.2267 20.44 31.1627 20.44C33.2027 20.44 34.6187 21.136 35.7707 22.72V20.752H38.3147V34H35.7707V32.08C34.4747 33.664 33.1547 34.312 31.1627 34.312C27.2027 34.312 24.3467 31.408 24.3467 27.424ZM27.0827 27.448C27.0827 29.968 28.9307 31.816 31.4507 31.816C33.9467 31.816 35.7227 29.968 35.7227 27.4C35.7227 24.808 33.8747 22.936 31.3307 22.936C28.9067 22.936 27.0827 24.88 27.0827 27.448ZM39.7517 34L45.0077 27.28L39.9437 20.752H43.1597L47.6717 26.872V20.752H50.4077V26.872L54.9197 20.752H58.1357L53.0717 27.28L58.3277 34H54.9917L50.4077 27.784V34H47.6717V27.784L43.0877 34H39.7517ZM58.6943 37.12V31.528H60.6383L65.2223 20.752H67.7663L72.3503 31.528H74.2943V37.12H72.3503L71.7023 34H61.3103L60.6383 37.12H58.6943ZM63.4703 31.528H69.5183L66.4943 24.352L63.4703 31.528ZM78.6581 31.528H81.3461C82.6901 31.528 83.4821 30.856 83.4821 29.776C83.4821 28.696 82.6901 28.024 81.3461 28.024H78.6581V31.528ZM75.9461 34V20.752H78.6581V25.552H81.6581C84.2981 25.552 86.2181 27.352 86.2181 29.776C86.2181 32.2 84.2981 34 81.6581 34H75.9461ZM87.5621 34V20.752H90.2741V34H87.5621ZM95.1926 16.096H97.4006C97.4006 17.344 97.9286 17.896 99.0566 17.896C100.185 17.896 100.713 17.344 100.713 16.096H102.921C102.561 18.16 101.265 19.216 99.0566 19.216C96.8486 19.216 95.5526 18.16 95.1926 16.096ZM93.0086 34V20.752H95.7206V30.16L102.345 20.752H105.105V34H102.393V24.616L95.7686 34H93.0086ZM114.548 34V20.752H121.82V23.224H117.26V34H114.548ZM122.995 27.4C122.995 23.464 126.067 20.44 130.051 20.44C133.915 20.44 136.987 23.536 136.987 27.4C136.987 31.264 133.915 34.312 130.051 34.312C126.091 34.312 122.995 31.264 122.995 27.4ZM130.003 31.816C132.403 31.816 134.227 29.896 134.227 27.424C134.227 24.88 132.379 22.936 129.931 22.936C127.603 22.936 125.731 24.904 125.731 27.4C125.731 29.872 127.603 31.816 130.003 31.816ZM137.702 37.12V31.528H139.646L144.23 20.752H146.774L151.358 31.528H153.302V37.12H151.358L150.71 34H140.318L139.646 37.12H137.702ZM142.478 31.528H148.526L145.502 24.352L142.478 31.528ZM171.665 29.8H174.737C173.489 32.752 171.209 34.312 168.185 34.312C164.225 34.312 161.081 31.24 161.081 27.376C161.081 23.488 164.153 20.44 168.089 20.44C171.185 20.44 173.681 22.168 174.737 25.048H171.665C170.897 23.656 169.697 22.936 168.089 22.936C165.617 22.936 163.817 24.808 163.817 27.376C163.817 29.896 165.689 31.816 168.161 31.816C169.649 31.816 170.681 31.216 171.665 29.8ZM176.245 27.4C176.245 23.464 179.317 20.44 183.301 20.44C187.165 20.44 190.237 23.536 190.237 27.4C190.237 31.264 187.165 34.312 183.301 34.312C179.341 34.312 176.245 31.264 176.245 27.4ZM183.253 31.816C185.653 31.816 187.477 29.896 187.477 27.424C187.477 24.88 185.629 22.936 183.181 22.936C180.853 22.936 178.981 24.904 178.981 27.4C178.981 29.872 180.853 31.816 183.253 31.816ZM194.616 34V23.224H191.4V20.752H200.544V23.224H197.328V34H194.616ZM202.298 34V20.752H205.01V26.056H211.538V20.752H214.274V34H211.538V28.528H205.01V34H202.298ZM217.016 34V20.752H219.728V30.16L226.352 20.752H229.112V34H226.4V24.616L219.776 34H217.016ZM9.096 65L14.664 51.752H16.992L22.56 65H19.68L15.84 55.4L11.976 65H9.096ZM35.6001 62.912C38.0241 62.912 39.9201 60.944 39.9201 58.424C39.9201 55.832 38.0001 53.84 35.5281 53.84C33.1041 53.84 31.1841 55.856 31.1841 58.376C31.1841 60.92 33.1041 62.912 35.6001 62.912ZM24.0321 65V51.752H26.7441V57.056H28.5681C29.1681 53.72 32.0961 51.344 35.6001 51.344C39.5601 51.344 42.6801 54.464 42.6801 58.4C42.6801 62.312 39.5601 65.408 35.6241 65.408C32.0721 65.408 29.1201 62.96 28.5441 59.528H26.7441V65H24.0321ZM43.3896 68.12V62.528H45.3336L49.9176 51.752H52.4616L57.0456 62.528H58.9896V68.12H57.0456L56.3976 65H46.0056L45.3336 68.12H43.3896ZM48.1656 62.528H54.2136L51.1896 55.352L48.1656 62.528ZM70.2259 60.944H73.1779C72.3139 63.512 69.7219 65.312 66.8179 65.312C62.8099 65.312 59.7139 62.288 59.7139 58.4C59.7139 54.512 62.7619 51.44 66.6499 51.44C70.5379 51.44 73.5379 54.488 73.5379 58.448C73.5379 58.88 73.4899 59.144 73.4179 59.528H62.5939C62.9059 61.472 64.5859 62.816 66.7459 62.816C68.3059 62.816 69.4339 62.168 70.2259 60.944ZM62.5459 57.104H70.8259C70.3459 55.112 68.8339 53.936 66.6739 53.936C64.5619 53.936 63.0499 55.112 62.5459 57.104ZM77.802 47.096H80.01C80.01 48.344 80.538 48.896 81.666 48.896C82.794 48.896 83.322 48.344 83.322 47.096H85.53C85.17 49.16 83.874 50.216 81.666 50.216C79.458 50.216 78.162 49.16 77.802 47.096ZM75.618 65V51.752H78.33V61.16L84.954 51.752H87.714V65H85.002V55.616L78.378 65H75.618ZM97.1571 69.488V51.752H99.7011V53.552C100.757 52.184 102.365 51.44 104.333 51.44C108.197 51.44 111.053 54.368 111.053 58.352C111.053 62.336 108.173 65.312 104.309 65.312C102.485 65.312 101.093 64.712 99.8691 63.416V69.488H97.1571ZM104.045 62.816C106.469 62.816 108.317 60.896 108.317 58.424C108.317 55.832 106.469 53.936 103.973 53.936C101.549 53.936 99.7011 55.88 99.7011 58.424C99.7011 60.896 101.597 62.816 104.045 62.816ZM123.148 60.944H126.1C125.236 63.512 122.644 65.312 119.74 65.312C115.732 65.312 112.636 62.288 112.636 58.4C112.636 54.512 115.684 51.44 119.572 51.44C123.46 51.44 126.46 54.488 126.46 58.448C126.46 58.88 126.412 59.144 126.34 59.528H115.516C115.828 61.472 117.508 62.816 119.668 62.816C121.228 62.816 122.356 62.168 123.148 60.944ZM115.468 57.104H123.748C123.268 55.112 121.756 53.936 119.596 53.936C117.484 53.936 115.972 55.112 115.468 57.104ZM127.964 58.424C127.964 54.392 130.844 51.44 134.78 51.44C136.82 51.44 138.236 52.136 139.388 53.72V51.752H141.932V65H139.388V63.08C138.092 64.664 136.772 65.312 134.78 65.312C130.82 65.312 127.964 62.408 127.964 58.424ZM130.7 58.448C130.7 60.968 132.548 62.816 135.068 62.816C137.564 62.816 139.34 60.968 139.34 58.4C139.34 55.808 137.492 53.936 134.948 53.936C132.524 53.936 130.7 55.88 130.7 58.448ZM143.393 65L148.961 51.752H151.289L156.857 65H153.977L150.137 55.4L146.273 65H143.393ZM158.329 65V51.752H161.041V61.16L167.665 51.752H170.425V65H167.713V55.616L161.089 65H158.329ZM172.469 60.944H175.181C175.277 62.024 176.237 62.816 177.461 62.816C178.733 62.816 179.741 61.976 179.741 60.944C179.741 59.624 178.733 59.048 176.525 59.048V57.152C178.397 57.152 179.261 56.6 179.261 55.448C179.261 54.608 178.469 53.912 177.461 53.912C176.477 53.912 175.709 54.536 175.565 55.448H172.973C173.117 53.144 175.037 51.44 177.461 51.44C179.957 51.44 181.925 53.216 181.925 55.448C181.925 56.624 181.181 57.632 180.029 57.944V58.016C181.493 58.4 182.477 59.576 182.477 60.944C182.477 63.368 180.245 65.312 177.485 65.312C174.797 65.312 172.613 63.416 172.469 60.944ZM185.969 69.488L188.345 64.016L183.401 51.752H186.473L189.833 60.992L193.457 51.752H196.529L188.897 69.488H185.969ZM209.577 62.912C212.001 62.912 213.897 60.944 213.897 58.424C213.897 55.832 211.977 53.84 209.505 53.84C207.081 53.84 205.161 55.856 205.161 58.376C205.161 60.92 207.081 62.912 209.577 62.912ZM198.009 65V51.752H200.721V57.056H202.545C203.145 53.72 206.073 51.344 209.577 51.344C213.537 51.344 216.657 54.464 216.657 58.4C216.657 62.312 213.537 65.408 209.601 65.408C206.049 65.408 203.097 62.96 202.521 59.528H200.721V65H198.009ZM221.03 65V54.224H217.814V51.752H226.958V54.224H223.742V65H221.03ZM235.415 65V51.752H238.775L242.975 59.864L247.175 51.752H250.511V65H247.799V55.424L243.839 63.152H242.087L238.127 55.424V65H235.415ZM263.187 60.944H266.139C265.275 63.512 262.683 65.312 259.779 65.312C255.771 65.312 252.675 62.288 252.675 58.4C252.675 54.512 255.723 51.44 259.611 51.44C263.499 51.44 266.499 54.488 266.499 58.448C266.499 58.88 266.451 59.144 266.379 59.528H255.555C255.867 61.472 257.547 62.816 259.707 62.816C261.267 62.816 262.395 62.168 263.187 60.944ZM255.507 57.104H263.787C263.307 55.112 261.795 53.936 259.635 53.936C257.523 53.936 256.011 55.112 255.507 57.104ZM275.851 65V60.08C274.603 60.272 273.643 60.368 272.515 60.368C269.779 60.368 268.123 58.616 268.123 55.664V51.752H270.859V55.664C270.859 57.416 271.435 57.896 273.547 57.896C274.339 57.896 274.987 57.824 275.851 57.68V51.752H278.563V65H275.851ZM283.538 65V54.224H280.322V51.752H289.466V54.224H286.25V65H283.538ZM292.54 69.488L294.916 64.016L289.972 51.752H293.044L296.404 60.992L300.028 51.752H303.1L295.468 69.488H292.54ZM9.792 89.4C9.792 85.464 12.864 82.44 16.848 82.44C20.712 82.44 23.784 85.536 23.784 89.4C23.784 93.264 20.712 96.312 16.848 96.312C12.888 96.312 9.792 93.264 9.792 89.4ZM16.8 93.816C19.2 93.816 21.024 91.896 21.024 89.424C21.024 86.88 19.176 84.936 16.728 84.936C14.4 84.936 12.528 86.904 12.528 89.4C12.528 91.872 14.4 93.816 16.8 93.816ZM27.8505 85.44L27.8985 85.464C28.6425 83.856 30.8745 82.632 32.9865 82.632C36.7065 82.632 39.5385 85.56 39.5385 89.448C39.5385 93.288 36.4425 96.312 32.5305 96.312C28.1625 96.312 25.5945 93.408 25.5945 88.512V86.52C25.5945 80.76 27.9705 77.832 32.9145 77.424L38.6505 76.968V79.416L33.0585 79.896C29.5545 80.208 27.8745 81.984 27.8505 85.44ZM32.4825 93.816C34.9065 93.816 36.8025 91.896 36.8025 89.424C36.8025 86.976 34.9065 85.08 32.4585 85.08C30.1065 85.08 28.2345 87 28.2345 89.4C28.2345 91.896 30.0825 93.816 32.4825 93.816ZM47.8311 89.4C47.8311 85.464 50.9031 82.44 54.8871 82.44C58.7511 82.44 61.8231 85.536 61.8231 89.4C61.8231 93.264 58.7511 96.312 54.8871 96.312C50.9271 96.312 47.8311 93.264 47.8311 89.4ZM54.8391 93.816C57.2391 93.816 59.0631 91.896 59.0631 89.424C59.0631 86.88 57.2151 84.936 54.7671 84.936C52.4391 84.936 50.5671 86.904 50.5671 89.4C50.5671 91.872 52.4391 93.816 54.8391 93.816ZM65.8896 85.44L65.9376 85.464C66.6816 83.856 68.9136 82.632 71.0256 82.632C74.7456 82.632 77.5776 85.56 77.5776 89.448C77.5776 93.288 74.4816 96.312 70.5696 96.312C66.2016 96.312 63.6336 93.408 63.6336 88.512V86.52C63.6336 80.76 66.0096 77.832 70.9536 77.424L76.6896 76.968V79.416L71.0976 79.896C67.5936 80.208 65.9136 81.984 65.8896 85.44ZM70.5216 93.816C72.9456 93.816 74.8416 91.896 74.8416 89.424C74.8416 86.976 72.9456 85.08 70.4976 85.08C68.1456 85.08 66.2736 87 66.2736 89.4C66.2736 91.896 68.1216 93.816 70.5216 93.816ZM81.063 100.488L83.439 95.016L78.495 82.752H81.567L84.927 91.992L88.551 82.752H91.623L83.991 100.488H81.063ZM100.374 96V91.08C99.1264 91.272 98.1664 91.368 97.0384 91.368C94.3024 91.368 92.6464 89.616 92.6464 86.664V82.752H95.3824V86.664C95.3824 88.416 95.9584 88.896 98.0704 88.896C98.8624 88.896 99.5104 88.824 100.374 88.68V82.752H103.086V96H100.374ZM115.765 91.944H118.717C117.853 94.512 115.261 96.312 112.357 96.312C108.349 96.312 105.253 93.288 105.253 89.4C105.253 85.512 108.301 82.44 112.189 82.44C116.077 82.44 119.077 85.488 119.077 89.448C119.077 89.88 119.029 90.144 118.957 90.528H108.133C108.445 92.472 110.125 93.816 112.285 93.816C113.845 93.816 114.973 93.168 115.765 91.944ZM108.085 88.104H116.365C115.885 86.112 114.373 84.936 112.213 84.936C110.101 84.936 108.589 86.112 108.085 88.104ZM121.157 96V82.752H123.869V88.056H130.397V82.752H133.133V96H130.397V90.528H123.869V96H121.157ZM135.876 96V82.752H138.588V92.16L145.212 82.752H147.972V96H145.26V86.616L138.636 96H135.876ZM150.712 96V82.752H153.424V92.16L160.048 82.752H162.808V96H160.096V86.616L153.472 96H150.712ZM171.555 91.944H174.267C174.363 93.024 175.323 93.816 176.547 93.816C177.819 93.816 178.827 92.976 178.827 91.944C178.827 90.624 177.819 90.048 175.611 90.048V88.152C177.483 88.152 178.347 87.6 178.347 86.448C178.347 85.608 177.555 84.912 176.547 84.912C175.563 84.912 174.795 85.536 174.651 86.448H172.059C172.203 84.144 174.123 82.44 176.547 82.44C179.043 82.44 181.011 84.216 181.011 86.448C181.011 87.624 180.267 88.632 179.115 88.944V89.016C180.579 89.4 181.563 90.576 181.563 91.944C181.563 94.368 179.331 96.312 176.571 96.312C173.883 96.312 171.699 94.416 171.555 91.944ZM183.159 89.424C183.159 85.392 186.039 82.44 189.975 82.44C192.015 82.44 193.431 83.136 194.583 84.72V82.752H197.127V96H194.583V94.08C193.287 95.664 191.967 96.312 189.975 96.312C186.015 96.312 183.159 93.408 183.159 89.424ZM185.895 89.448C185.895 91.968 187.743 93.816 190.263 93.816C192.759 93.816 194.535 91.968 194.535 89.4C194.535 86.808 192.687 84.936 190.143 84.936C187.719 84.936 185.895 86.88 185.895 89.448ZM206.563 96V82.752H213.835V85.224H209.275V96H206.563ZM215.587 100.488V82.752H218.131V84.552C219.187 83.184 220.795 82.44 222.763 82.44C226.627 82.44 229.483 85.368 229.483 89.352C229.483 93.336 226.603 96.312 222.739 96.312C220.915 96.312 219.523 95.712 218.299 94.416V100.488H215.587ZM222.475 93.816C224.899 93.816 226.747 91.896 226.747 89.424C226.747 86.832 224.899 84.936 222.403 84.936C219.979 84.936 218.131 86.88 218.131 89.424C218.131 91.896 220.027 93.816 222.475 93.816ZM231.065 89.424C231.065 85.392 233.945 82.44 237.881 82.44C239.921 82.44 241.337 83.136 242.489 84.72V82.752H245.033V96H242.489V94.08C241.193 95.664 239.873 96.312 237.881 96.312C233.921 96.312 231.065 93.408 231.065 89.424ZM233.801 89.448C233.801 91.968 235.649 93.816 238.169 93.816C240.665 93.816 242.441 91.968 242.441 89.4C242.441 86.808 240.593 84.936 238.049 84.936C235.625 84.936 233.801 86.88 233.801 89.448ZM247.766 96V82.752H250.478V88.056H257.006V82.752H259.742V96H257.006V90.528H250.478V96H247.766ZM262.485 96V82.752H265.197V92.16L271.821 82.752H274.581V96H271.869V86.616L265.245 96H262.485ZM277.321 96V82.752H280.033V93.528H286.105V82.752H288.841V93.528H291.241V99.12H289.297L288.625 96H277.321ZM302.843 91.944H305.795C304.931 94.512 302.339 96.312 299.435 96.312C295.427 96.312 292.331 93.288 292.331 89.4C292.331 85.512 295.379 82.44 299.267 82.44C303.155 82.44 306.155 85.488 306.155 89.448C306.155 89.88 306.107 90.144 306.035 90.528H295.211C295.523 92.472 297.203 93.816 299.363 93.816C300.923 93.816 302.051 93.168 302.843 91.944ZM295.163 88.104H303.443C302.963 86.112 301.451 84.936 299.291 84.936C297.179 84.936 295.667 86.112 295.163 88.104ZM310.419 78.096H312.627C312.627 79.344 313.155 79.896 314.283 79.896C315.411 79.896 315.939 79.344 315.939 78.096H318.147C317.787 80.16 316.491 81.216 314.283 81.216C312.075 81.216 310.779 80.16 310.419 78.096ZM308.235 96V82.752H310.947V92.16L317.571 82.752H320.331V96H317.619V86.616L310.995 96H308.235ZM20.376 122.8H23.448C22.2 125.752 19.92 127.312 16.896 127.312C12.936 127.312 9.792 124.24 9.792 120.376C9.792 116.488 12.864 113.44 16.8 113.44C19.896 113.44 22.392 115.168 23.448 118.048H20.376C19.608 116.656 18.408 115.936 16.8 115.936C14.328 115.936 12.528 117.808 12.528 120.376C12.528 122.896 14.4 124.816 16.872 124.816C18.36 124.816 19.392 124.216 20.376 122.8ZM32.2352 127V113.752H34.9472V119.056H41.4752V113.752H44.2112V127H41.4752V121.528H34.9472V127H32.2352ZM46.3779 120.424C46.3779 116.392 49.2579 113.44 53.1939 113.44C55.2339 113.44 56.6499 114.136 57.8019 115.72V113.752H60.3459V127H57.8019V125.08C56.5059 126.664 55.1859 127.312 53.1939 127.312C49.2339 127.312 46.3779 124.408 46.3779 120.424ZM49.1139 120.448C49.1139 122.968 50.9619 124.816 53.4819 124.816C55.9779 124.816 57.7539 122.968 57.7539 120.4C57.7539 117.808 55.9059 115.936 53.3619 115.936C50.9379 115.936 49.1139 117.88 49.1139 120.448ZM63.0789 127V113.752H65.7909V124.528H70.2309V113.752H72.9429V124.528H77.3589V113.752H80.0949V127H63.0789ZM92.7728 122.944H95.7248C94.8608 125.512 92.2688 127.312 89.3648 127.312C85.3568 127.312 82.2607 124.288 82.2607 120.4C82.2607 116.512 85.3088 113.44 89.1968 113.44C93.0848 113.44 96.0848 116.488 96.0848 120.448C96.0848 120.88 96.0368 121.144 95.9648 121.528H85.1408C85.4528 123.472 87.1328 124.816 89.2928 124.816C90.8528 124.816 91.9808 124.168 92.7728 122.944ZM85.0928 119.104H93.3728C92.8928 117.112 91.3808 115.936 89.2208 115.936C87.1088 115.936 85.5968 117.112 85.0928 119.104ZM100.349 109.096H102.557C102.557 110.344 103.085 110.896 104.213 110.896C105.341 110.896 105.869 110.344 105.869 109.096H108.077C107.717 111.16 106.421 112.216 104.213 112.216C102.005 112.216 100.709 111.16 100.349 109.096ZM98.1649 127V113.752H100.877V123.16L107.501 113.752H110.261V127H107.549V117.616L100.925 127H98.1649ZM119.704 127V113.752H131.632V127H128.92V116.224H122.416V127H119.704ZM133.8 120.4C133.8 116.464 136.872 113.44 140.856 113.44C144.72 113.44 147.792 116.536 147.792 120.4C147.792 124.264 144.72 127.312 140.856 127.312C136.896 127.312 133.8 124.264 133.8 120.4ZM140.808 124.816C143.208 124.816 145.032 122.896 145.032 120.424C145.032 117.88 143.184 115.936 140.736 115.936C138.408 115.936 136.536 117.904 136.536 120.4C136.536 122.872 138.408 124.816 140.808 124.816ZM149.938 127V113.752H153.298L157.498 121.864L161.698 113.752H165.034V127H162.322V117.424L158.362 125.152H156.61L152.65 117.424V127H149.938ZM167.198 120.4C167.198 116.464 170.27 113.44 174.254 113.44C178.118 113.44 181.19 116.536 181.19 120.4C181.19 124.264 178.118 127.312 174.254 127.312C170.294 127.312 167.198 124.264 167.198 120.4ZM174.206 124.816C176.606 124.816 178.43 122.896 178.43 120.424C178.43 117.88 176.582 115.936 174.134 115.936C171.806 115.936 169.934 117.904 169.934 120.4C169.934 122.872 171.806 124.816 174.206 124.816ZM183.337 127V113.752H186.049V124.528H190.489V113.752H193.201V124.528H197.617V113.752H200.353V124.528H202.753V130.12H200.809L200.137 127H183.337ZM207.119 124.528H209.903C211.223 124.528 212.015 123.856 212.015 122.776C212.015 121.696 211.223 121.024 209.903 121.024H207.119V124.528ZM204.407 127V113.752H207.119V118.552H210.191C212.831 118.552 214.775 120.352 214.775 122.776C214.775 125.2 212.831 127 210.191 127H204.407ZM228.233 124.912C230.657 124.912 232.553 122.944 232.553 120.424C232.553 117.832 230.633 115.84 228.161 115.84C225.737 115.84 223.817 117.856 223.817 120.376C223.817 122.92 225.737 124.912 228.233 124.912ZM216.665 127V113.752H219.377V119.056H221.201C221.801 115.72 224.729 113.344 228.233 113.344C232.193 113.344 235.313 116.464 235.313 120.4C235.313 124.312 232.193 127.408 228.257 127.408C224.705 127.408 221.753 124.96 221.177 121.528H219.377V127H216.665Z" fill="white"/>
</svg>
