<svg width="24" height="24" viewBox="0 0 24 24" fill="none" xmlns="http://www.w3.org/2000/svg">
<path fill-rule="evenodd" clip-rule="evenodd" d="M24 12C24 18.627 18.627 24 12 24C5.373 24 0 18.627 0 12C0 5.373 5.373 0 12 0C18.627 0 24 5.373 24 12ZM12.4 8.514C11.3553 8.964 9.267 9.894 6.135 11.304C5.62633 11.514 5.36 11.719 5.336 11.919C5.296 12.257 5.705 12.39 6.262 12.571C6.338 12.5957 6.41633 12.6217 6.497 12.649C7.046 12.833 7.783 13.049 8.167 13.057C8.515 13.065 8.90333 12.9167 9.332 12.612C12.258 10.5693 13.7683 9.537 13.863 9.515C13.93 9.499 14.023 9.479 14.086 9.537C14.149 9.595 14.142 9.704 14.136 9.733C14.096 9.913 12.488 11.457 11.656 12.257C11.397 12.507 11.213 12.683 11.176 12.724C11.0907 12.814 11.0063 12.9 10.923 12.982C10.413 13.49 10.031 13.872 10.944 14.493C11.383 14.793 11.734 15.04 12.084 15.286C12.467 15.556 12.848 15.824 13.342 16.159C13.4667 16.2457 13.5873 16.3323 13.704 16.419C14.15 16.747 14.549 17.042 15.044 16.995C15.331 16.968 15.627 16.689 15.778 15.855C16.134 13.888 16.833 9.625 16.995 7.868C17.0051 7.72178 16.999 7.5749 16.977 7.43C16.9648 7.31453 16.9103 7.20767 16.824 7.13C16.695 7.021 16.496 6.998 16.408 7C16.004 7.007 15.384 7.23 12.4 8.514Z" fill="white"/>
</svg>
