<svg width="26" height="26" viewBox="0 0 26 26" fill="none" xmlns="http://www.w3.org/2000/svg">
<path d="M13 1.04004C6.40534 1.04004 1.03998 6.4054 1.03998 13C1.03998 19.5947 6.40534 24.96 13 24.96C19.5951 24.96 24.96 19.5947 24.96 13C24.96 6.4054 19.5951 1.04004 13 1.04004ZM18.1859 15.3582C19.3492 16.391 19.591 16.7596 19.6305 16.8226C20.1125 17.587 19.0959 17.68 19.0959 17.68H16.9535C16.9535 17.68 16.432 17.6858 15.9863 17.3904C15.2599 16.9146 14.4991 15.9921 13.9646 16.1523C13.5158 16.2864 13.52 16.8928 13.52 17.4112C13.52 17.5968 13.3603 17.68 13 17.68C12.6396 17.68 12.4899 17.68 12.3302 17.68C11.1566 17.68 9.8831 17.2848 8.61274 15.9573C6.81562 14.0806 5.2395 10.3002 5.2395 10.3002C5.2395 10.3002 5.14642 10.1099 5.24782 9.99392C5.36274 9.86392 5.67526 9.88056 5.67526 9.88056L7.75266 9.88004C7.75266 9.88004 7.94818 9.91696 8.08858 10.0158C8.20454 10.0969 8.26902 10.2518 8.26902 10.2518C8.26902 10.2518 8.61794 11.4042 9.06254 12.1389C9.93094 13.5731 10.335 13.6095 10.6298 13.455C11.0604 13.2314 10.92 11.7068 10.92 11.7068C10.92 11.7068 10.9392 11.0521 10.7146 10.7604C10.5414 10.5347 10.2102 10.4146 10.0656 10.3959C9.94862 10.3808 10.1441 10.1759 10.3932 10.0589C10.726 9.91072 11.1789 9.87276 11.96 9.88004C12.5679 9.88576 12.7431 9.92216 12.9802 9.97676C13.6973 10.1421 13.52 10.5784 13.52 12.1103C13.52 12.6012 13.4524 13.2912 13.8226 13.52C13.9823 13.6188 14.5293 13.7395 15.5027 12.1587C15.965 11.4088 16.3327 10.165 16.3327 10.165C16.3327 10.165 16.4086 10.0282 16.5266 9.96064C16.6473 9.89148 16.6436 9.89304 16.809 9.89304C16.9743 9.89304 18.6326 9.88004 18.9966 9.88004C19.3601 9.88004 19.7012 9.87588 19.76 10.0891C19.8442 10.3954 19.4917 11.4447 18.5983 12.5835C17.1303 14.4524 16.9676 14.2777 18.1859 15.3582Z" fill="white"/>
</svg>
